<svg width="129" height="129" viewBox="0 0 129 129" fill="none" xmlns="http://www.w3.org/2000/svg">
<rect width="129" height="129" rx="10" fill="#0B6DFF"/>
<path d="M23.7919 113V17.8H70.3039C82.2719 17.8 91.2479 20.0667 97.2319 24.6C103.307 29.1333 106.344 35.1173 106.344 42.552C106.344 47.5387 105.12 51.8907 102.672 55.608C100.224 59.2347 96.8692 62.0453 92.6079 64.04C88.3466 66.0347 83.4506 67.032 77.9199 67.032L80.5039 61.456C86.4879 61.456 91.7919 62.4533 96.4159 64.448C101.04 66.352 104.621 69.208 107.16 73.016C109.789 76.824 111.104 81.4933 111.104 87.024C111.104 95.184 107.885 101.576 101.448 106.2C95.0106 110.733 85.5359 113 73.0239 113H23.7919ZM45.6879 96.408H71.3919C77.1039 96.408 81.4106 95.5013 84.3119 93.688C87.3039 91.784 88.7999 88.792 88.7999 84.712C88.7999 80.7227 87.3039 77.776 84.3119 75.872C81.4106 73.8773 77.1039 72.88 71.3919 72.88H44.0559V56.832H67.5839C72.9332 56.832 77.0132 55.9253 79.8239 54.112C82.7252 52.208 84.1759 49.352 84.1759 45.544C84.1759 41.8267 82.7252 39.0613 79.8239 37.248C77.0132 35.344 72.9332 34.392 67.5839 34.392H45.6879V96.408Z" fill="white"/>
</svg>
