<svg width="650" height="511" viewBox="0 0 650 511" fill="none" xmlns="http://www.w3.org/2000/svg">
<g clip-path="url(#clip0_125_76)">
<mask id="mask0_125_76" style="mask-type:luminance" maskUnits="userSpaceOnUse" x="0" y="0" width="650" height="511">
<path d="M650 0H0V511H650V0Z" fill="white"/>
</mask>
<g mask="url(#mask0_125_76)">
<g opacity="0.2">
<path d="M121.592 475.616H114.887L113.797 307.884H122.683L121.592 475.616Z" fill="#EBEBEB"/>
<path d="M122.694 308.153L122.518 335.222L121.592 475.616H114.887L113.972 335.222L113.797 308.153H122.694Z" fill="#E0E0E0"/>
<path d="M122.694 308.153L122.518 335.515H113.972L113.797 308.153H122.694Z" fill="#D6D6D6"/>
<path d="M192.772 475.616H186.066L174.027 307.884H182.925L192.772 475.616Z" fill="#EBEBEB"/>
<path d="M192.784 475.616H186.066L174.613 316.219L174.027 308.153H182.925L183.405 316.219L192.784 475.616Z" fill="#E0E0E0"/>
<path d="M183.405 315.82H174.613L174.027 308.153H182.925L183.405 315.82Z" fill="#D6D6D6"/>
<path d="M50.4089 475.616H43.7034L53.5507 307.884H62.4484L50.4089 475.616Z" fill="#EBEBEB"/>
<path d="M62.4484 308.153L61.8622 316.219L50.3972 475.616H43.7034L53.07 316.219L53.5507 308.153H62.4484Z" fill="#E0E0E0"/>
<path d="M53.553 308.153H62.4507L61.8645 315.82H53.0723L53.553 308.153Z" fill="#D6D6D6"/>
<path d="M46.5081 303.687H189.997V309.548C189.997 309.881 189.931 310.21 189.804 310.518C189.677 310.825 189.49 311.104 189.255 311.339C189.02 311.574 188.741 311.761 188.433 311.888C188.126 312.015 187.797 312.081 187.464 312.081H49.0402C48.7077 312.081 48.3784 312.015 48.0712 311.888C47.764 311.761 47.4848 311.574 47.2497 311.339C47.0146 311.104 46.828 310.825 46.7008 310.518C46.5735 310.21 46.5081 309.881 46.5081 309.548V303.687Z" fill="#EBEBEB"/>
<path d="M46.5081 303.687H189.997V309.548C189.997 309.881 189.931 310.21 189.804 310.518C189.677 310.825 189.49 311.104 189.255 311.339C189.02 311.574 188.741 311.761 188.433 311.888C188.126 312.015 187.797 312.081 187.464 312.081H49.0402C48.7077 312.081 48.3784 312.015 48.0712 311.888C47.764 311.761 47.4848 311.574 47.2497 311.339C47.0146 311.104 46.828 310.825 46.7008 310.518C46.5735 310.21 46.5081 309.881 46.5081 309.548V303.687Z" fill="#E0E0E0"/>
<path d="M189.973 303.687H46.5081V307.884H189.973V303.687Z" fill="#D6D6D6"/>
<path d="M194.133 304.777H42.3446C41.7228 304.777 41.1265 304.53 40.6868 304.091C40.2471 303.651 40 303.055 40 302.433C40 301.811 40.2471 301.215 40.6868 300.775C41.1265 300.335 41.7228 300.088 42.3446 300.088H194.133C194.755 300.088 195.351 300.335 195.791 300.775C196.231 301.215 196.478 301.811 196.478 302.433C196.478 303.055 196.231 303.651 195.791 304.091C195.351 304.53 194.755 304.777 194.133 304.777Z" fill="#EBEBEB"/>
<path d="M194.133 304.777H42.3446C41.7228 304.777 41.1265 304.53 40.6868 304.091C40.2471 303.651 40 303.055 40 302.433C40 301.811 40.2471 301.215 40.6868 300.775C41.1265 300.335 41.7228 300.088 42.3446 300.088H194.133C194.755 300.088 195.351 300.335 195.791 300.775C196.231 301.215 196.478 301.811 196.478 302.433C196.478 303.055 196.231 303.651 195.791 304.091C195.351 304.53 194.755 304.777 194.133 304.777Z" fill="#EBEBEB"/>
<path d="M146.809 295.2V297.943C146.809 298.763 145.391 299.35 144.582 299.35H80.4344C79.6138 299.35 78.3008 298.763 78.3008 297.943V295.2H146.809Z" fill="#EBEBEB"/>
<path d="M146.809 295.2V297.943C146.809 298.763 145.391 299.35 144.582 299.35H80.4344C79.6138 299.35 78.3008 298.763 78.3008 297.943V295.2H146.809Z" fill="#EBEBEB"/>
<path d="M146.807 295.2V297.943C146.807 298.763 145.389 299.35 144.58 299.35H102.272C101.451 299.35 100.091 298.763 100.091 297.943V295.2H146.807Z" fill="#D6D6D6"/>
<path d="M157.1 261.473L149.456 296.231C149.323 296.798 149.01 297.306 148.564 297.68C148.119 298.054 147.564 298.274 146.983 298.306H105.261C104.992 298.282 104.731 298.198 104.499 298.06C104.267 297.921 104.069 297.733 103.919 297.508C103.769 297.283 103.672 297.027 103.634 296.759C103.597 296.492 103.62 296.219 103.702 295.962L111.321 261.578C111.47 261.048 111.801 260.587 112.255 260.277C112.71 259.966 113.259 259.825 113.807 259.878H155.517C156.642 259.902 157.346 260.335 157.1 261.473Z" fill="#EBEBEB"/>
<path d="M157.1 261.473L149.456 296.231C149.323 296.798 149.01 297.306 148.564 297.68C148.119 298.054 147.564 298.274 146.983 298.306H105.261C104.992 298.282 104.731 298.198 104.499 298.06C104.267 297.921 104.069 297.733 103.919 297.508C103.769 297.283 103.672 297.027 103.634 296.759C103.597 296.492 103.62 296.219 103.702 295.962L111.321 261.578C111.47 261.048 111.801 260.587 112.255 260.277C112.71 259.966 113.259 259.825 113.807 259.878H155.517C156.642 259.902 157.346 260.335 157.1 261.473Z" fill="#E0E0E0"/>
<path d="M157.101 261.473L149.458 296.231C149.324 296.798 149.011 297.306 148.566 297.68C148.12 298.054 147.565 298.274 146.984 298.306H106.68C106.411 298.282 106.151 298.197 105.918 298.059C105.686 297.921 105.487 297.733 105.336 297.508C105.186 297.283 105.087 297.028 105.048 296.761C105.009 296.493 105.03 296.22 105.11 295.962L112.741 261.578C112.89 261.048 113.22 260.587 113.675 260.277C114.129 259.966 114.679 259.825 115.226 259.878H155.518C156.644 259.902 157.347 260.335 157.101 261.473Z" fill="#EBEBEB"/>
</g>
<path d="M132.697 284.746C134.643 284.746 136.636 282.66 137.14 280.057C137.644 277.455 136.484 275.368 134.526 275.368C134.157 275.37 133.792 275.438 133.447 275.567C133.269 276.485 132.876 277.347 132.302 278.084C131.727 278.822 130.987 279.413 130.141 279.811C130.138 279.881 130.138 279.952 130.141 280.022C129.579 282.66 130.751 284.746 132.697 284.746Z" fill="white" fill-opacity="0.1"/>
<path opacity="0.4" d="M158.594 177.87V0.867188H0V177.87H158.594Z" fill="#575757"/>
<path opacity="0.5" d="M11.7612 166.111H146.86V12.6032H11.7612V166.111Z" fill="#575757"/>
<path d="M84.2976 171.209H122.348V117.957H84.2976V171.209Z" fill="#575757"/>
<path d="M38.5205 175.862H76.5597L79.2969 122.597H41.2577L38.5205 175.862Z" fill="#575757"/>
<path d="M5.38354 109.91H43.4227L46.16 56.6455H8.12077L5.38354 109.91Z" fill="#575757"/>
<path d="M121.804 61.3717L151.063 62.6543L152.858 21.7057L123.599 20.4231L121.804 61.3717Z" fill="#575757"/>
<path d="M5.39014 44.9213L34.6492 46.2039L36.4442 5.2553L7.18515 3.97271L5.39014 44.9213Z" fill="#575757"/>
<path d="M152.246 69.0747L122.962 68.6863L122.418 109.671L151.702 110.059L152.246 69.0747Z" fill="#575757"/>
<path d="M54.5495 107.845L116.575 106.048L114.059 19.2213L52.0332 21.0188L54.5495 107.845Z" fill="#575757"/>
<path d="M474.017 47.5015H176.162C169.535 47.5015 164.162 52.8741 164.162 59.5015V460.11C164.162 466.738 169.535 472.11 176.162 472.11H474.017C480.644 472.11 486.017 466.738 486.017 460.11V59.5015C486.017 52.874 480.644 47.5015 474.017 47.5015Z" fill="white"/>
<path d="M473.544 48.0212H176.67C170.043 48.0212 164.67 53.3938 164.67 60.0212V71.3964H485.544V60.0212C485.544 53.3938 480.171 48.0212 473.544 48.0212Z" fill="#E0E0E0"/>
<path d="M179.405 63.186C181.33 63.186 182.891 61.6255 182.891 59.7005C182.891 57.7756 181.33 56.2151 179.405 56.2151C177.48 56.2151 175.92 57.7756 175.92 59.7005C175.92 61.6255 177.48 63.186 179.405 63.186Z" fill="#FF5645"/>
<path d="M190.093 63.186C192.018 63.186 193.578 61.6255 193.578 59.7005C193.578 57.7756 192.018 56.2151 190.093 56.2151C188.168 56.2151 186.607 57.7756 186.607 59.7005C186.607 61.6255 188.168 63.186 190.093 63.186Z" fill="#FFCB3D"/>
<path d="M204.278 59.7005C204.28 60.3922 204.076 61.0688 203.693 61.6447C203.31 62.2205 202.764 62.6696 202.126 62.935C201.487 63.2005 200.784 63.2704 200.105 63.1358C199.427 63.0013 198.803 62.6684 198.314 62.1793C197.825 61.6902 197.492 61.0669 197.358 60.3884C197.223 59.7099 197.293 59.0067 197.559 58.368C197.824 57.7293 198.273 57.1837 198.849 56.8004C199.425 56.4172 200.101 56.2135 200.793 56.2151C201.717 56.2151 202.604 56.5823 203.258 57.236C203.911 57.8896 204.278 58.7761 204.278 59.7005Z" fill="#3ABF7C"/>
<path d="M454.342 91.3965H195.834C189.207 91.3965 183.834 96.7691 183.834 103.396V180.753C183.834 187.381 189.207 192.753 195.834 192.753H454.342C460.969 192.753 466.342 187.381 466.342 180.753V103.396C466.342 96.7691 460.969 91.3965 454.342 91.3965Z" stroke="#E0E0E0" stroke-width="2" stroke-linecap="round" stroke-linejoin="round" stroke-dasharray="16 16"/>
<path d="M325.088 164.829C337.654 164.829 347.842 154.642 347.842 142.075C347.842 129.508 337.654 119.321 325.088 119.321C312.521 119.321 302.334 129.508 302.334 142.075C302.334 154.642 312.521 164.829 325.088 164.829Z" fill="#0B6DFF"/>
<path d="M322.818 134.129V139.237C322.818 139.387 322.758 139.532 322.652 139.638C322.545 139.745 322.401 139.805 322.25 139.805H317.147C316.545 139.805 315.968 140.044 315.542 140.469C315.116 140.895 314.877 141.473 314.877 142.075C314.877 142.677 315.116 143.254 315.542 143.68C315.968 144.106 316.545 144.345 317.147 144.345H322.25C322.401 144.345 322.545 144.405 322.652 144.511C322.758 144.617 322.818 144.762 322.818 144.912V150.02C322.818 150.622 323.057 151.199 323.483 151.625C323.908 152.051 324.486 152.29 325.088 152.29C325.69 152.29 326.267 152.051 326.693 151.625C327.119 151.199 327.358 150.622 327.358 150.02V144.912C327.358 144.762 327.418 144.617 327.524 144.511C327.631 144.405 327.775 144.345 327.926 144.345H333.029C333.631 144.345 334.208 144.106 334.634 143.68C335.06 143.254 335.299 142.677 335.299 142.075C335.299 141.473 335.06 140.895 334.634 140.469C334.208 140.044 333.631 139.805 333.029 139.805H327.921C327.77 139.805 327.626 139.745 327.52 139.638C327.413 139.532 327.353 139.387 327.353 139.237V134.129C327.353 133.527 327.114 132.95 326.689 132.524C326.263 132.098 325.685 131.859 325.083 131.859C324.481 131.859 323.904 132.098 323.478 132.524C323.052 132.95 322.813 133.527 322.813 134.129H322.818Z" fill="white"/>
<path d="M454.362 212.753H195.854C189.227 212.753 183.854 218.126 183.854 224.753V302.11C183.854 308.737 189.227 314.11 195.854 314.11H454.362C460.989 314.11 466.362 308.737 466.362 302.11V224.753C466.362 218.126 460.989 212.753 454.362 212.753Z" fill="#EBEBEB"/>
<path d="M303.199 267.705L282.541 294.264C282.054 294.887 281.752 295.634 281.669 296.42C281.587 297.207 281.727 298 282.075 298.711C282.422 299.421 282.962 300.019 283.633 300.437C284.304 300.855 285.08 301.076 285.87 301.074H382.798C383.563 301.074 384.313 300.866 384.968 300.473C385.623 300.08 386.159 299.516 386.519 298.841C386.878 298.167 387.047 297.407 387.008 296.644C386.969 295.881 386.723 295.142 386.296 294.508L363.076 260.111C361.955 258.51 360.477 257.19 358.76 256.255C357.042 255.321 355.132 254.798 353.178 254.727C351.224 254.656 349.28 255.039 347.499 255.846C345.719 256.653 344.149 257.862 342.915 259.378L331.46 274.103L319.424 264.924C316.833 263.374 313.773 262.802 310.797 263.312C307.821 263.822 305.126 265.381 303.199 267.705Z" fill="#D6D6D6"/>
<path d="M310.416 248.791C316.288 248.791 321.049 244.03 321.049 238.158C321.049 232.286 316.288 227.525 310.416 227.525C304.544 227.525 299.783 232.286 299.783 238.158C299.783 244.03 304.544 248.791 310.416 248.791Z" fill="white"/>
<path d="M567.263 149.747H311.057C304.43 149.747 299.057 155.12 299.057 161.747V224.303C299.057 230.93 304.43 236.303 311.057 236.303H567.263C573.89 236.303 579.263 230.93 579.263 224.303V161.747C579.263 155.12 573.89 149.747 567.263 149.747Z" fill="white"/>
<path d="M514.851 168.753H379.885C377.676 168.753 375.885 170.544 375.885 172.753C375.885 174.962 377.676 176.753 379.885 176.753H514.851C517.06 176.753 518.851 174.962 518.851 172.753C518.851 170.544 517.06 168.753 514.851 168.753Z" fill="#D6D6D6"/>
<path d="M476.908 184.753H379.885C377.676 184.753 375.885 186.544 375.885 188.753C375.885 190.962 377.676 192.753 379.885 192.753H476.908C479.117 192.753 480.908 190.962 480.908 188.753C480.908 186.544 479.117 184.753 476.908 184.753Z" fill="#E0E0E0"/>
<path d="M499.656 196.753H379.885C377.676 196.753 375.885 198.544 375.885 200.753C375.885 202.962 377.676 204.753 379.885 204.753H499.656C501.865 204.753 503.656 202.962 503.656 200.753C503.656 198.544 501.865 196.753 499.656 196.753Z" fill="#E0E0E0"/>
<path d="M461.791 208.753H379.885C377.676 208.753 375.885 210.544 375.885 212.753C375.885 214.962 377.676 216.753 379.885 216.753H461.791C464 216.753 465.791 214.962 465.791 212.753C465.791 210.544 464 208.753 461.791 208.753Z" fill="#E0E0E0"/>
<path d="M558.95 162.47L561.071 164.591C561.134 164.653 561.169 164.738 561.169 164.827C561.169 164.915 561.134 165 561.071 165.062L558.952 167.182C558.702 167.432 558.561 167.771 558.561 168.125C558.561 168.478 558.702 168.817 558.952 169.067C559.202 169.317 559.541 169.458 559.894 169.458C560.248 169.458 560.587 169.317 560.837 169.067L562.957 166.948C563.019 166.885 563.104 166.85 563.192 166.85C563.281 166.85 563.366 166.885 563.428 166.948L565.549 169.069C565.799 169.319 566.139 169.46 566.492 169.46C566.846 169.46 567.185 169.319 567.435 169.069C567.685 168.819 567.826 168.48 567.826 168.126C567.826 167.773 567.685 167.434 567.435 167.184L565.314 165.062C565.251 165 565.216 164.915 565.216 164.827C565.216 164.738 565.251 164.653 565.314 164.591L567.433 162.471C567.683 162.221 567.824 161.882 567.824 161.529C567.824 161.175 567.683 160.836 567.433 160.586C567.183 160.336 566.844 160.195 566.49 160.195C566.137 160.195 565.798 160.336 565.548 160.586L563.426 162.707C563.364 162.77 563.279 162.805 563.19 162.805C563.102 162.805 563.017 162.77 562.955 162.707L560.833 160.586C560.583 160.336 560.244 160.195 559.891 160.195C559.537 160.195 559.198 160.336 558.948 160.586C558.698 160.836 558.557 161.175 558.557 161.529C558.557 161.882 558.698 162.221 558.948 162.471L558.95 162.47Z" fill="#CCCCCC"/>
<path d="M287.806 334.11H189.854C186.54 334.11 183.854 336.796 183.854 340.11C183.854 343.424 186.54 346.11 189.854 346.11H287.806C291.12 346.11 293.806 343.424 293.806 340.11C293.806 336.796 291.12 334.11 287.806 334.11Z" fill="#D6D6D6"/>
<path d="M460.339 334.11H329.373C326.059 334.11 323.373 336.796 323.373 340.11C323.373 343.424 326.059 346.11 329.373 346.11H460.339C463.653 346.11 466.339 343.424 466.339 340.11C466.339 336.796 463.653 334.11 460.339 334.11Z" fill="#D6D6D6"/>
<path d="M258.624 358.11H189.854C186.54 358.11 183.854 360.796 183.854 364.11C183.854 367.424 186.54 370.11 189.854 370.11H258.624C261.938 370.11 264.624 367.424 264.624 364.11C264.624 360.796 261.938 358.11 258.624 358.11Z" fill="#E0E0E0"/>
<path d="M422.396 358.11H329.373C326.059 358.11 323.373 360.796 323.373 364.11C323.373 367.424 326.059 370.11 329.373 370.11H422.396C425.71 370.11 428.396 367.424 428.396 364.11C428.396 360.796 425.71 358.11 422.396 358.11Z" fill="#E0E0E0"/>
<path d="M276.12 382.11H189.854C186.54 382.11 183.854 384.796 183.854 388.11C183.854 391.424 186.54 394.11 189.854 394.11H276.12C279.434 394.11 282.12 391.424 282.12 388.11C282.12 384.796 279.434 382.11 276.12 382.11Z" fill="#E0E0E0"/>
<path d="M445.144 382.11H329.373C326.059 382.11 323.373 384.796 323.373 388.11C323.373 391.424 326.059 394.11 329.373 394.11H445.144C448.458 394.11 451.144 391.424 451.144 388.11C451.144 384.796 448.458 382.11 445.144 382.11Z" fill="#E0E0E0"/>
<path d="M246.999 406.11H189.854C186.54 406.11 183.854 408.796 183.854 412.11C183.854 415.424 186.54 418.11 189.854 418.11H246.999C250.313 418.11 252.999 415.424 252.999 412.11C252.999 408.796 250.313 406.11 246.999 406.11Z" fill="#E0E0E0"/>
<path d="M407.279 406.11H329.373C326.059 406.11 323.373 408.796 323.373 412.11C323.373 415.424 326.059 418.11 329.373 418.11H407.279C410.593 418.11 413.279 415.424 413.279 412.11C413.279 408.796 410.593 406.11 407.279 406.11Z" fill="#E0E0E0"/>
<path d="M407.279 430.11H329.373C326.059 430.11 323.373 432.796 323.373 436.11C323.373 439.424 326.059 442.11 329.373 442.11H407.279C410.593 442.11 413.279 439.424 413.279 436.11C413.279 432.796 410.593 430.11 407.279 430.11Z" fill="#E0E0E0"/>
<path d="M213.181 240.185C212.756 240.433 212.254 240.515 211.772 240.413C210.579 240.147 209.349 238.472 209.019 236.53C208.863 235.604 208.915 234.655 209.171 233.751C209.222 233.4 209.358 233.067 209.569 232.782C209.779 232.496 210.056 232.267 210.376 232.114C210.585 232.023 210.819 232.009 211.038 232.074C211.256 232.139 211.444 232.279 211.569 232.47C211.76 232.749 211.722 232.977 211.772 232.99C211.823 233.002 211.988 232.774 211.836 232.33C211.715 232.084 211.514 231.887 211.265 231.772C211.102 231.68 210.923 231.622 210.738 231.6C210.553 231.578 210.365 231.593 210.186 231.645C209.756 231.797 209.372 232.057 209.071 232.399C208.769 232.741 208.559 233.154 208.46 233.599C208.132 234.601 208.054 235.668 208.232 236.708C208.613 238.878 210.021 240.756 211.645 240.997C211.949 241.038 212.257 241.011 212.549 240.919C212.84 240.827 213.108 240.671 213.333 240.464C213.625 240.147 213.65 239.893 213.612 239.88C213.574 239.868 213.485 239.994 213.181 240.185Z" fill="#E0E0E0"/>
<path d="M146.911 496.579L144.271 508.291L162.418 510.525L163.065 498.926L146.911 496.579Z" fill="#0B6DFF"/>
<path d="M231.47 505.537L231.978 495.893L213.921 494.853L213.045 508.938L214.162 509.078C219.123 509.649 239.439 511.616 242.827 510.778C246.609 509.877 231.47 505.537 231.47 505.537Z" fill="#0B6DFF"/>
<path d="M219.61 509.179C219.426 507.642 218.686 506.225 217.529 505.195C216.389 504.178 214.908 503.625 213.38 503.647L213.088 508.723L219.61 509.179Z" fill="#0B6DFF"/>
<path d="M238.856 507.923C238.856 507.923 244.147 509.776 243.424 510.626C242.701 511.476 222.093 510.271 213.045 508.938V508.545L237.079 510.156C237.079 510.156 237.802 507.898 238.856 507.923Z" fill="#0B6DFF"/>
<path d="M301.748 181.736C304.382 178.75 306.848 175.62 309.133 172.359C311.798 168.171 311.43 167.917 310.897 167.676C309.463 167.029 305.948 174.846 305.732 172.752C305.517 170.658 311.138 163.717 309.539 163.108C307.56 162.309 304.019 170.569 303.677 171.242C303.334 171.915 302.408 171.407 302.7 170.823C303.194 169.973 308.232 160.887 306.291 160.088C305.212 159.644 304.628 161.687 304.628 161.687C304.628 161.687 300.542 170.569 299.629 170.125C298.715 169.681 300.898 164.428 301.824 162.702C302.75 160.976 302.243 159.872 301.177 160.101C300.453 160.253 297.636 165.468 296.812 167.194C295.987 168.92 293.791 173.704 293.005 170.417C292.218 167.131 290.365 164.91 289.464 164.656C288.563 164.402 287.903 165.582 288.551 166.407C289.161 167.369 289.635 168.411 289.959 169.504C290.263 170.368 290.417 171.278 290.416 172.194C290.416 172.993 290.416 173.691 290.416 174.326L290.099 181.051L297.713 186.305L301.748 181.736Z" fill="#FFBE9D"/>
<path d="M196.59 181.089L196.463 222.965L214.431 223.815L214.952 213.663C214.952 213.663 221.297 214.932 222.972 209.006C224.025 205.199 223.758 176.013 223.758 176.013L196.59 181.089Z" fill="#FFBE9D"/>
<path d="M191.877 180.328C191.877 180.543 191.991 180.747 192.055 180.937C191.951 180.816 191.841 180.702 191.725 180.594" fill="#263238"/>
<path d="M222.691 169.44C217.222 171.217 215.902 171.8 213.453 171.978C211.004 172.156 194.419 172.181 192.858 181.559L192.743 182.701C192.743 182.701 189.152 181.254 190.091 187.777C190.586 191.165 191.982 194.299 193.264 198.017C194.152 203.524 191.005 204.895 188.416 206.722C187.782 207.166 187.008 207.737 187.147 208.499C187.287 209.26 188.036 209.577 188.734 209.692C190.247 209.929 191.794 209.57 193.048 208.689C192.673 209.497 192.25 210.281 191.779 211.037C191.565 211.424 191.495 211.875 191.581 212.309C191.667 212.743 191.903 213.133 192.249 213.41C192.702 213.607 193.211 213.634 193.683 213.486C195.156 213.148 196.487 212.359 197.489 211.227C197.326 211.581 197.297 211.984 197.409 212.358C197.521 212.732 197.767 213.052 198.099 213.257C198.782 213.653 199.571 213.825 200.357 213.752C203.91 213.752 208.187 213.752 211.461 210.11C214.481 206.748 215.268 204.578 215.521 199.959C215.521 199.959 211.956 199.375 212.374 196.507C212.945 192.535 215.978 192.434 218.237 194.21L220.851 187.231C220.851 187.231 227.437 182.904 227.818 180.15C228.198 177.396 228.198 167.676 222.691 169.44Z" fill="#263238"/>
<path d="M173.782 312.465L140.205 501.058L168.947 502.682C168.947 502.682 199.478 340.116 203.958 339.709C205.836 339.545 206.585 501.401 208.095 501.058C209.605 500.715 239.146 501.578 239.146 501.578C239.146 501.578 235.149 310.067 235.212 310.054L173.782 312.465Z" fill="#2B2B2B"/>
<path d="M216.248 335.75C216.248 335.903 211.299 337.083 205.132 338.39C198.965 339.697 193.927 340.648 193.889 340.509C193.851 340.369 198.838 339.176 205.018 337.857C211.198 336.537 216.223 335.611 216.248 335.75Z" fill="#455A64"/>
<path d="M286.95 180.353C286.95 180.353 264.692 213.917 262.839 215.808C260.987 217.699 226.04 221.353 226.04 221.353C215.342 218.942 180.75 219.742 174.215 224.551C170.878 226.404 166.449 230.896 162.642 237.837L163.036 223.371C163.036 223.371 141.755 249.537 140.207 267.036C139.572 274.383 145.435 293.151 173.2 269.574L172.997 300.702L172.667 314.14L235.227 310.257L232.016 276.896C231.648 267.518 231.471 257.76 231.242 249.118C235.151 247.634 271.532 233.891 274.032 233.497C276.532 233.104 300.49 189.084 300.49 189.084C301.276 183.754 286.95 180.353 286.95 180.353Z" fill="#0B6DFF"/>
<path d="M151.295 252.392C153.016 249.575 154.928 246.878 157.018 244.322C158.935 241.65 161.025 239.107 163.274 236.708C161.549 239.523 159.637 242.219 157.551 244.778C155.634 247.45 153.544 249.993 151.295 252.392Z" fill="#263238"/>
<path d="M174.754 241.111C174.907 241.111 174.564 257.455 174.006 277.606C173.447 297.758 172.864 314.115 172.737 314.102C172.61 314.089 172.927 297.758 173.485 277.594C174.044 257.43 174.602 241.098 174.754 241.111Z" fill="#263238"/>
<path d="M265.941 223.358C265.106 222.259 264.49 221.01 264.126 219.678C263.602 218.424 263.177 217.13 262.857 215.808C263.683 216.913 264.298 218.16 264.672 219.488C265.197 220.743 265.621 222.037 265.941 223.358Z" fill="#263238"/>
<path d="M268.436 220.503C267.373 219.895 266.374 219.181 265.454 218.371C264.414 217.71 263.516 216.847 262.814 215.833C263.884 216.44 264.895 217.146 265.835 217.94C266.856 218.622 267.739 219.491 268.436 220.503Z" fill="#263238"/>
<path d="M231.785 220.884C230.65 221.081 229.527 221.343 228.423 221.671C225.804 222.548 223.531 224.235 221.935 226.489C220.338 228.743 219.499 231.446 219.54 234.208C219.593 235.356 219.712 236.5 219.895 237.634C219.723 237.369 219.606 237.071 219.553 236.759C219.326 235.93 219.194 235.079 219.159 234.221C219.012 231.344 219.842 228.502 221.515 226.156C223.187 223.811 225.604 222.101 228.372 221.303C229.197 221.052 230.049 220.899 230.91 220.846C231.202 220.81 231.498 220.822 231.785 220.884Z" fill="#263238"/>
<path d="M175.92 121.396C203.534 121.396 225.92 99.0107 225.92 71.3965C225.92 43.7822 203.534 21.3965 175.92 21.3965C148.306 21.3965 125.92 43.7822 125.92 71.3965C125.92 99.0107 148.306 121.396 175.92 121.396Z" fill="#0B6DFF"/>
<path opacity="0.6" d="M217.686 71.3965C217.683 81.1401 214.273 90.5759 208.047 98.0707C201.821 105.565 193.17 110.647 183.592 112.437C174.014 114.226 164.112 112.61 155.6 107.869C147.088 103.128 140.501 95.5598 136.98 86.4746C133.459 77.3894 133.226 67.3591 136.32 58.1199C139.414 48.8807 145.642 41.0141 153.924 35.8819C162.206 30.7497 172.023 28.6749 181.673 30.0166C191.324 31.3583 200.202 36.0321 206.77 43.2289C206.783 43.2231 206.797 43.22 206.811 43.22C206.825 43.22 206.839 43.2231 206.852 43.2289C213.855 50.9351 217.72 60.9836 217.686 71.3965Z" fill="white"/>
<path d="M217.679 71.3966C217.679 79.5148 215.313 87.457 210.87 94.2516C206.427 101.046 200.101 106.399 192.664 109.654C185.227 112.91 177.003 113.928 168.996 112.583C160.99 111.238 153.55 107.589 147.585 102.082C140.292 94.1349 136.357 83.6743 136.603 72.8908C136.849 62.1073 141.258 51.8372 148.906 44.2311C156.554 36.625 166.848 32.2729 177.633 32.0861C188.417 31.8993 198.856 35.8923 206.763 43.229C206.776 43.2231 206.79 43.2201 206.804 43.2201C206.818 43.2201 206.832 43.2231 206.844 43.229C213.847 50.9352 217.713 60.9836 217.679 71.3966Z" fill="white"/>
<path d="M175.924 73.8333C175.604 73.8339 175.287 73.771 174.992 73.6483C174.696 73.5256 174.428 73.3455 174.203 73.1185L153.832 52.7481C153.593 52.5251 153.401 52.256 153.268 51.9571C153.134 51.6583 153.063 51.3356 153.057 51.0084C153.051 50.6813 153.111 50.3563 153.234 50.0529C153.357 49.7495 153.539 49.4739 153.77 49.2425C154.002 49.0111 154.277 48.8287 154.581 48.7061C154.884 48.5836 155.209 48.5234 155.536 48.5292C155.863 48.535 156.186 48.6066 156.485 48.7397C156.784 48.8729 157.053 49.0649 157.276 49.3043L175.924 67.9528L186.694 57.1828C187.156 56.7524 187.767 56.5181 188.399 56.5292C189.03 56.5404 189.632 56.7961 190.078 57.2425C190.525 57.689 190.781 58.2913 190.792 58.9225C190.803 59.5538 190.569 60.1647 190.138 60.6266L177.646 73.1185C177.189 73.5741 176.57 73.8309 175.924 73.8333Z" fill="#263238"/>
<path d="M342.428 208.87C354.026 208.87 363.428 199.468 363.428 187.87C363.428 176.272 354.026 166.87 342.428 166.87C330.83 166.87 321.428 176.272 321.428 187.87C321.428 199.468 330.83 208.87 342.428 208.87Z" fill="#EBEBEB"/>
<g opacity="0.25">
<path d="M552.707 388.604V414.486H590.556H632.324V388.604H552.707Z" fill="#EBEBEB"/>
<path d="M549.368 381.366V388.604H635.111V381.366H590.561H549.368Z" fill="#E0E0E0"/>
<path d="M592.229 414.486H632.324V388.604H635.107V381.366H590.557V387.93L592.229 414.486Z" fill="#D6D6D6"/>
<path d="M649.796 476.781L647.9 73.833H640.1V153.2H619.947L619.572 73.8455H611.773V153.2H542.439L542.065 73.8455H534.265V153.2H514.174L513.8 73.8455H506V476.781H515.697L515.447 422.71H534.265V476.781H543.974L543.712 422.747H611.773V476.781H621.469L621.219 422.71H640.1V476.781H649.796ZM524.345 369.312L517.369 339.437H531.682L524.345 369.312ZM534.265 341.271V411.828L525.817 375.639L534.265 341.271ZM534.265 238.719L525.817 202.529L534.265 168.175V238.719ZM532.756 245.195H515.285L524.22 208.844L532.756 245.195ZM524.345 196.202L516.358 161.935H532.756L524.345 196.202ZM522.797 202.517L514.549 235.998L514.224 165.828L522.797 202.517ZM515.06 342.507L522.797 375.626L515.31 405.85L515.06 342.507ZM524.27 381.953L531.757 413.899H516.42L524.27 381.953ZM515.322 330.639L515.26 330.365H515.01L514.648 253.955H534.265V330.589L515.322 330.639ZM542.913 254.005H611.773V330.639H543.25L542.913 254.005ZM629.555 208.844L638.041 245.195H620.62L629.555 208.844ZM620.321 234.064L620.009 167.925L628.108 202.504L620.321 234.064ZM640.1 241.052L631.103 202.529L640.1 165.941V241.052ZM640.1 245.07V245.195H639.551L640.1 245.07ZM640.1 343.368V409.619L632.164 375.639L640.1 343.368ZM630.691 369.312L623.715 339.437H638.091L630.691 369.312ZM629.63 196.202L621.644 161.935H638.091L629.63 196.202ZM640.1 254.005V330.639H621.669V330.365L620.845 330.552L620.483 254.005H640.1ZM629.144 375.626L621.145 408.134L620.833 339.998L629.144 375.626ZM630.616 381.953L638.104 413.899H622.767L630.616 381.953ZM611.773 161.935V245.145H542.876L542.489 161.935H611.773ZM544.923 413.899H543.675L543.325 339.437H611.773V413.899H544.923Z" fill="#E0E0E0"/>
<path d="M544.911 245.595V236.497H609.14L609.34 245.595H544.911Z" fill="#D6D6D6"/>
<path d="M552.375 236.135V227.051H603.252L603.415 236.135H552.375Z" fill="#E0E0E0"/>
<path d="M552.149 227.151V218.066H603.026L603.188 227.151H552.149Z" fill="#D6D6D6"/>
<path d="M611.77 92.9758H598.879V153.037H611.77V92.9758Z" fill="#D6D6D6"/>
<path d="M598.684 92.9758H585.793V153.037H598.684V92.9758Z" fill="#E0E0E0"/>
<path d="M586.219 92.9758H573.329V153.037H586.219V92.9758Z" fill="#EBEBEB"/>
<path d="M611.77 270.727H598.879V330.789H611.77V270.727Z" fill="#D6D6D6"/>
<path d="M598.684 270.727H585.793V330.789H598.684V270.727Z" fill="#E0E0E0"/>
<path d="M586.219 270.727H573.329V330.789H586.219V270.727Z" fill="#EBEBEB"/>
<path d="M557.385 152.114L572.872 99.2777L567.531 96.9441L551.645 150.205L557.385 152.114Z" fill="#D6D6D6"/>
</g>
<path opacity="0.15" d="M607.944 108.887H604V133.433H607.944V108.887Z" fill="white"/>
<path opacity="0.15" d="M594.943 108.887H591V133.433H594.943V108.887Z" fill="white"/>
<path opacity="0.15" d="M581.943 108.887H578V133.433H581.943V108.887Z" fill="white"/>
<path opacity="0.1" d="M609.583 237.982C609.583 237.982 552.616 238.407 548.922 239.23C548.124 239.418 547.325 242.974 548.922 243.236C550.52 243.498 609.583 244.035 609.583 244.035V237.982Z" fill="white"/>
<path opacity="0.1" d="M603.769 228.536C603.769 228.536 558.645 228.948 555.725 229.784C555.088 229.971 554.477 233.465 555.725 233.789C556.973 234.114 603.769 234.588 603.769 234.588V228.536Z" fill="white"/>
<path opacity="0.1" d="M603.768 219.551C603.768 219.551 558.644 219.963 555.724 220.799C555.088 220.986 554.476 224.542 555.724 224.804C556.972 225.067 603.768 225.603 603.768 225.603V219.551Z" fill="white"/>
<path opacity="0.2" d="M607.944 286.651H604V311.197H607.944V286.651Z" fill="white"/>
<path opacity="0.2" d="M594.943 286.651H591V311.197H594.943V286.651Z" fill="white"/>
<path opacity="0.2" d="M581.943 286.651H578V311.197H581.943V286.651Z" fill="white"/>
<path opacity="0.15" d="M580.148 392.772H564V396.666H580.148V392.772Z" fill="white"/>
<path opacity="0.15" d="M582.728 401.545H562V409.769H582.728V401.545Z" fill="white"/>
<path d="M341.453 204.273V171.545H343.55V204.273H341.453ZM348.51 181.364C348.357 180.068 347.735 179.062 346.644 178.347C345.553 177.631 344.215 177.273 342.629 177.273C341.47 177.273 340.456 177.46 339.587 177.835C338.726 178.21 338.053 178.726 337.567 179.382C337.09 180.038 336.851 180.784 336.851 181.619C336.851 182.318 337.017 182.919 337.35 183.422C337.691 183.916 338.125 184.33 338.654 184.662C339.182 184.986 339.736 185.254 340.316 185.467C340.895 185.672 341.428 185.838 341.914 185.966L344.573 186.682C345.254 186.861 346.013 187.108 346.848 187.423C347.692 187.739 348.497 188.169 349.264 188.714C350.04 189.251 350.679 189.942 351.182 190.786C351.685 191.629 351.936 192.665 351.936 193.892C351.936 195.307 351.566 196.585 350.824 197.727C350.091 198.869 349.017 199.777 347.602 200.45C346.196 201.124 344.487 201.46 342.476 201.46C340.601 201.46 338.977 201.158 337.605 200.553C336.242 199.947 335.168 199.104 334.384 198.021C333.608 196.939 333.169 195.682 333.067 194.25H336.34C336.425 195.239 336.757 196.057 337.337 196.705C337.925 197.344 338.666 197.821 339.561 198.136C340.465 198.443 341.436 198.597 342.476 198.597C343.686 198.597 344.773 198.401 345.736 198.009C346.699 197.608 347.462 197.054 348.024 196.347C348.587 195.631 348.868 194.795 348.868 193.841C348.868 192.972 348.625 192.264 348.139 191.719C347.654 191.173 347.014 190.73 346.222 190.389C345.429 190.048 344.573 189.75 343.652 189.494L340.431 188.574C338.385 187.986 336.766 187.146 335.573 186.055C334.379 184.964 333.783 183.537 333.783 181.773C333.783 180.307 334.179 179.028 334.972 177.938C335.773 176.838 336.847 175.986 338.193 175.381C339.548 174.767 341.061 174.46 342.732 174.46C344.419 174.46 345.919 174.763 347.232 175.368C348.544 175.964 349.584 176.783 350.351 177.822C351.127 178.862 351.536 180.043 351.578 181.364H348.51Z" fill="#CCCCCC" fill-opacity="0.8"/>
</g>
</g>
<defs>
<clipPath id="clip0_125_76">
<rect width="650" height="511" fill="white"/>
</clipPath>
</defs>
</svg>
