<svg width="800" height="480" viewBox="0 0 800 480" fill="none" xmlns="http://www.w3.org/2000/svg">
<g clip-path="url(#clip0_109_462)">
<rect width="800" height="480" fill="#D9D9D9"/>
<path fill-rule="evenodd" clip-rule="evenodd" d="M338 158C326.954 158 318 166.954 318 178V188.211H318.022C318.007 188.523 318 188.838 318 189.155V290.98C318 291.251 318.005 291.521 318.016 291.789H318V302C318 313.046 326.954 322 338 322H462C473.046 322 482 313.046 482 302V291.789H481.984C481.995 291.521 482 291.251 482 290.98V189.155C482 188.838 481.993 188.523 481.978 188.211H482V178C482 166.954 473.046 158 462 158H338ZM421.717 223.043C420.276 220.943 417.905 219.702 415.375 219.702C412.845 219.702 410.442 220.943 409.033 223.043L381.166 263.646L372.677 253.114C371.204 251.3 368.994 250.25 366.688 250.25C364.381 250.25 362.139 251.3 360.698 253.114L340.198 278.57C338.34 280.861 337.988 284.012 339.269 286.653C340.55 289.294 343.241 290.98 346.188 290.98H376.938H387.188H453.812C456.663 290.98 459.29 289.421 460.603 286.907C461.916 284.393 461.756 281.37 460.155 279.048L421.717 223.043ZM353.875 219.702C357.953 219.702 361.863 218.093 364.747 215.229C367.63 212.364 369.25 208.479 369.25 204.428C369.25 200.378 367.63 196.493 364.747 193.628C361.863 190.764 357.953 189.155 353.875 189.155C349.797 189.155 345.887 190.764 343.003 193.628C340.12 196.493 338.5 200.378 338.5 204.428C338.5 208.479 340.12 212.364 343.003 215.229C345.887 218.093 349.797 219.702 353.875 219.702Z" fill="white"/>
</g>
<defs>
<clipPath id="clip0_109_462">
<rect width="800" height="480" fill="white"/>
</clipPath>
</defs>
</svg>
